<svg preserveAspectRatio="none" overflow="visible" style="display: block;" width="179" height="188" viewBox="0 0 179 188" fill="none" xmlns="http://www.w3.org/2000/svg">
<path id="Vector 7" d="M99.7064 41.5888C91.0307 41.3707 63.5089 34.9928 53.2779 31.6723C51.8797 31.2185 50.5191 30.8831 50.012 29.8916C49.505 28.9002 49.8489 27.4595 52.4433 26.3777C59.5286 23.4233 73.6916 24.1829 90.7449 24.9876C116.176 26.1877 139.299 36.2709 157.694 41.1068C162.649 42.4095 170.851 43.5743 174.246 44.6191C189.841 49.4184 120.898 46.1428 114.402 44.7829C102.131 42.2144 84.2914 42.1111 82.6551 39.3636C80.8267 36.2935 80.9811 31.0208 81.3394 25.7671C81.8506 18.2719 94.8273 11.0173 104.324 4.57851C107.46 2.45218 110.783 1.43109 114.084 1.04722C121.104 0.230777 131.796 10.1839 140.992 17.0303C148.537 22.6476 146.773 30.072 146.246 33.6602C145.721 37.224 141.267 39.1813 138.048 41.424C135.052 43.5113 129.895 44.2341 116.25 45.1676C88.3051 47.0794 69.3297 46.6712 68.0236 50.4315C65.895 56.5598 67.8553 62.3237 69.3754 64.8659C72.7828 70.564 86.3953 70.6404 102.828 71.9275C117.381 73.0675 127.938 71.6312 130.708 68.5402C135.574 63.111 131.426 51.1114 129.109 43.8528C128.211 41.0406 124.295 40.8662 121.275 40.5999C114.822 40.0307 109.116 44.6259 103.746 47.9162C102.355 48.7681 100.903 49.4953 100.777 50.3706C100.465 52.5324 104.735 53.1102 107.039 53.7017C107.982 53.9438 107.535 55.9156 106.705 56.965C103.075 61.557 98.5016 65.4218 94.087 68.9674C87.6509 74.1365 93.0012 90.7872 93.6041 97.6945C93.7333 99.1746 93.1721 100.63 92.2617 100.941C84.5635 103.57 74.9947 91.3663 68.9107 87.826C63.2078 84.5075 62.6896 75.9073 58.29 70.035C54.7862 65.3583 47.6872 69.5783 45.2521 71.0246C44.1097 71.7031 44.1511 73.6208 44.6873 74.8684C47.0441 80.3523 54.7835 81.0469 58.2541 86.5987C61.6666 92.0578 71.501 93.9068 79.1551 95.4943C85.5585 96.8223 91.6097 93.3216 98.719 88.6585C102.64 86.0864 104.394 81.8948 104.781 79.9429C104.856 79.5658 103.409 80.7959 103.131 82.1745C102.854 83.5531 103.464 85.1354 104.389 86.49C106.232 89.1894 109.348 90.2518 112.668 90.4473C119.912 90.874 124.281 88.3402 127.1 89.8946C133.717 93.5437 133.661 102.049 136.9 106.878C138.583 109.387 142.846 107.613 146.006 106.352C152.392 103.804 155.982 97.7431 160.694 93.8834C161.853 92.9347 163.064 92.0544 164.235 92.2356C172.633 93.5352 175.437 111.236 177.638 118C180.594 127.084 164.697 132.081 157.913 136.722C151.933 140.813 147.783 141.752 145.086 141.293C138.574 140.185 134.481 130.48 129.024 127.354C127.641 126.562 126.03 126.27 124.627 126.542C123.224 126.814 121.992 127.855 121.358 129.809C118.507 138.59 122.827 145.68 124.162 152.659C125.923 161.858 128.005 167.797 129.543 173.823C129.94 175.379 130.668 176.853 130.538 178.507C130.408 180.161 129.518 181.91 128.05 183.137C117.493 191.959 95.9816 183.27 89.4657 180.662C86.0738 179.304 82.3283 179.896 79.3498 178.691C76.5904 177.575 74.4933 175.281 73.1921 172.446C69.8589 165.184 77.0639 158.063 78.7204 150.307C80.1998 143.38 80.7092 136.9 82.3139 130.618C83.9067 124.384 84.9422 114.892 82.4968 106.342C79.6019 96.2208 71.2505 94.7365 64.6522 90.2528C58.3007 85.9368 53.8355 80.7297 49.4189 74.4223C48.3097 72.8383 47.9963 71.0067 46.5231 69.6377C43.142 66.4957 29.8411 66.276 15.295 66.1756C11.0109 66.146 13.0194 65.8742 15.4265 65.3221C25.0149 63.1226 31.0344 61.3243 39.7259 60.7402C43.8267 60.4646 53.8625 60.0792 59.4813 61.0132C90.7966 66.2184 20.3679 67.0093 4.32344 67.3611C0.857172 67.4371 -0.703346 67.6596 3.67255 67.1566C8.04845 66.6535 18.4086 65.4424 36.2187 64.8185C54.0288 64.1946 78.9749 64.1946 88.1727 64.0855C90.064 63.7583 78.6416 64.2645 64.6385 65.3719C54.5299 65.7484 38.3253 65.7484 21.6297 65.7484" stroke="#424242" stroke-width="2" stroke-linecap="round" stroke-linejoin="round"/>
</svg>
